# xmcd
#
# Track frame offsets:
#	150
#	15357
#	29562
#	49047
#	64577
#	75102
#	93940
#	110152
#	123147
#	138105
#	153322
#	175727
#
# Disc length: 2532 seconds
#
# Revision: 0
# Processed by: cddbd v1.5.2PL0 Copyright (c) Steve Scherf et al.
# Submitted via: audiograbber 1.83.01
#
DISCID=8409e20c
DTITLE=David Lee Murphy - Flea - We Can't All Be Angels
DYEAR=1997
DGENRE=Country
TTITLE0=She Don't Try (To Make Me Love Her)
TTITLE1=Just Don't Wait Around Til She's Leavin
TTITLE2=We Can't All Be Angels
TTITLE3=Bringin Her Back
TTITLE4=Kentucky Girl
TTITLE5=That's Behind Me
TTITLE6=I Could Believe Anything
TTITLE7=All Lit Up In Love
TTITLE8=Almost Like Being There
TTITLE9=Velvet Lies
TTITLE10=She's Not Mine
TTITLE11=Just Don't Wait Around Til She's Leavin (Rmx)
EXTD=
EXTT0=
EXTT1=
EXTT2=
EXTT3=
EXTT4=
EXTT5=
EXTT6=
EXTT7=
EXTT8=
EXTT9=
EXTT10=
EXTT11=
PLAYORDER=
